# AST/ASF file generated using VICON BodyLanguage
# -----------------------------------------------
:version 1.10
:name VICON
:units
  mass 1.0
  length 0.45
  angle deg
:documentation
   .ast/.asf automatically generated from VICON data using
   VICON BodyBuilder and BodyLanguage model FoxedUp or BRILLIANT.MOD
:root
   order TX TY TZ RX RY RZ
   axis XYZ
   position 0 0 0  
   orientation 0 0 0 
:bonedata
  begin
     id 1 
     name lhipjoint
     direction 0.711131 -0.61297 0.344326 
     length 2.29162 
     axis 0 0 0  XYZ
  end
  begin
     id 2 
     name lfemur
     direction 0.34202 -0.939693 0  
     length 6.71424  
     axis 0 0 20  XYZ
    dof rx ry rz
    limits (-160.0 20.0)
           (-70.0 70.0)
           (-60.0 70.0)
  end
  begin
     id 3 
     name ltibia
     direction 0.34202 -0.939693 0   
     length 6.7087   
     axis 0 0 20   XYZ
    dof rx
    limits (-10.0 170.0)
  end
  begin
     id 4 
     name lfoot
     direction 0.0230374 -0.0632947 0.997729   
     length 1.56743   
     axis -90 7.62852e-016 20   XYZ
    dof rx rz
    limits (-45.0 90.0)
           (-70.0 20.0)
  end
  begin
     id 5 
     name ltoes
     direction 1.53585e-011 -4.21885e-011 1   
     length 0.802914   
     axis -90 7.62852e-016 20   XYZ
    dof rx
    limits (-90.0 20.0)
  end
  begin
     id 6 
     name rhipjoint
     direction -0.733192 -0.592884 0.333043   
     length 2.36925  
     axis 0 0 0  XYZ 
  end
  begin
     id 7 
     name rfemur
     direction -0.34202 -0.939693 0   
     length 6.67027   
     axis 0 0 -20   XYZ
    dof rx ry rz
    limits (-160.0 20.0)
           (-70.0 70.0)
           (-70.0 60.0)
  end
  begin
     id 8 
     name rtibia
     direction -0.34202 -0.939693 0   
     length 6.6862   
     axis 0 0 -20   XYZ
    dof rx
    limits (-10.0 170.0)
 end
 begin
     id 9 
     name rfoot
     direction -0.0949739 -0.260939 0.960672   
     length 1.67698  
     axis -90 -7.62852e-016 -20   XYZ
    dof rx rz
    limits (-45.0 90.0)
           (-20.0 70.0)
  end
  begin
     id 10 
     name rtoes
     direction -1.5353e-011 -4.21868e-011 1   
     length 0.846298   
     axis -90 -7.62852e-016 -20   XYZ
    dof rx
    limits (-90.0 20.0)
  end
  begin
     id 11 
     name lowerback
     direction -0.0206828 0.999785 -0.00109866   
     length 2.04382   
     axis 0 0 0   XYZ
    dof rx ry rz
    limits (-20.0 45.0)
           (-30.0 30.0)
           (-30.0 30.0)
  end
  begin
     id 12 
     name upperback
     direction -0.0105003 0.999727 -0.0208904   
     length 2.04538   
     axis 0 0 0   XYZ
    dof rx ry rz
    limits (-20.0 45.0)
           (-30.0 30.0)
           (-30.0 30.0)
  end
  begin
     id 13 
     name thorax
     direction -0.000416255 0.999808 -0.0196023   
     length 2.0399   
     axis 0 0 0   XYZ
    dof rx ry rz
    limits (-20.0 45.0)
           (-30.0 30.0)
           (-30.0 30.0)
  end
  begin
     id 14 
     name lowerneck
     direction 0.0627861 0.989205 0.13241   
     length 1.46207   
     axis 0 0 0   XYZ
    dof rx ry rz
    limits (-20.0 45.0)
           (-30.0 30.0)
           (-30.0 30.0)
  end
  begin
     id 15 
     name upperneck
     direction 0.00627179 0.994526 0.104303   
     length 1.41419   
     axis 0 0 0   XYZ
    dof rx ry rz
    limits (-20.0 45.0)
           (-30.0 30.0)
           (-30.0 30.0)
  end
  begin
     id 16
     name head
     direction -0.00443838 0.999688 0.0245968  
     length 1.50718  
     axis 0 0 0   XYZ
    dof rx ry rz
    limits (-20.0 45.0)
           (-30.0 30.0)
           (-30.0 30.0)
  end
  begin
     id 17 
     name lclavicle
     direction 0.758742 0.650995 -0.0227258  
     length 2.86888  
     axis 0 0 0   XYZ
    dof ry rz
    limits (-20.0 10.0)
           (0.0 20.0)
  end
  begin
     id 18 
     name lhumerus
     direction 1 -4.48962e-011 1.06664e-027   
     length 4.65776   
     axis -180 -30 -90   XYZ
    dof rx ry rz
    limits (-60.0 90.0)
           (-90.0 90.0)
           (-90.0 90.0)
  end
  begin
     id 19
     name lradius
     direction 1 -4.48968e-011 1.40404e-026   
     length 3.55539   
     axis -180 -30 -90   XYZ
    dof rx
    limits (-10.0 170.0)
  end
  begin
     id 20
     name lwrist
     direction 1 -4.48976e-011 3.32647e-026   
     length 1.77769   
     axis -2.20186e-014 90 90   XYZ
    dof ry
    limits (-180.0 0.0)
 end
  begin
     id 21 
     name lhand
     direction 1 -4.48982e-011 6.65293e-026   
     length 0.707264   
     axis -4.24514e-014 90 90   XYZ
    dof rx rz
    limits (-90.0 90.0)
           (-45.0 45.0)
  end
  begin
     id 22 
     name lfingers
     direction 1 -4.48966e-011 1.33059e-025   
     length 0.570215   
     axis -8.49028e-014 90 90   XYZ
    dof rx
    limits (0.0 90.0)
  end
  begin
     id 23
     name lthumb
     direction 0.707107 -6.3493e-011 0.707107   
     length 0.818718   
     axis -90 45 2.85299e-015   XYZ
    dof rx rz
    limits (-45.0 45.0)
           (-45.0 45.0)
  end
  begin
     id 24 
     name rclavicle
     direction -0.870343 0.482028 -0.100759   
     length 3.2251  
     axis 0 0 0   XYZ 
    dof ry rz
    limits (-10.0 20.0)
           (-20.0 0.0)
  end
  begin
     id 25 
     name rhumerus
     direction -1 -4.48974e-011 -9.45849e-028  
     length 4.71925   
     axis -180 30 90   XYZ
    dof rx ry rz
    limits (-90.0 60.0)
           (-90.0 90.0)
           (-90.0 90.0)
  end
  begin
     id 26 
     name rradius
     direction -1 -4.48965e-011 1.17607e-026   
     length 3.5699   
     axis -180 30 90   XYZ
    dof rx
    limits (-10.0 170.0)
  end
  begin
     id 27 
     name rwrist
     direction -1 -4.48968e-011 3.32647e-026   
     length 1.78495   
     axis -2.20186e-014 -90 -90   XYZ
    dof ry
    limits (-180.0 0.0)
  end
  begin
     id 28
     name rhand
     direction -1 -4.48995e-011 6.65293e-026   
     length 0.507757   
     axis -4.24514e-014 -90 -90   XYZ
    dof rx rz
    limits (-90.0 90.0)
           (-45.0 45.0)
  end
  begin
     id 29
     name rfingers
     direction -1 -4.48864e-011 1.33059e-025   
     length 0.409367   
     axis -8.49028e-014 -90 -90   XYZ
    dof rx
    limits (0.0 90.0)
  end
  begin
     id 30
     name rthumb
     direction -0.707107 -6.3494e-011 0.707107   
     length 0.587771   
     axis -90 -45 -2.85299e-015   XYZ
    dof rx rz
    limits (-45.0 45.0)
           (-45.0 45.0)
  end
:hierarchy
  begin
    root lhipjoint rhipjoint lowerback
    lhipjoint lfemur
    lfemur ltibia
    ltibia lfoot
    lfoot ltoes
    rhipjoint rfemur
    rfemur rtibia
    rtibia rfoot
    rfoot rtoes
    lowerback upperback
    upperback thorax
    thorax lowerneck lclavicle rclavicle
    lowerneck upperneck
    upperneck head
    lclavicle lhumerus
    lhumerus lradius
    lradius lwrist
    lwrist lhand lthumb
    lhand lfingers
    rclavicle rhumerus
    rhumerus rradius
    rradius rwrist
    rwrist rhand rthumb
    rhand rfingers
  end

#!OML:ASF E:\Steps\Project 1\Capture day 1\Session 2\Subject.ASF
:FULLY-SPECIFIED
:DEGREES
50
root 8.73804 16.3254 30.3813 -151.381 0.965782 -179.787
lowerback -29.5796 -2.01336 -4.07528
upperback -2.70616 -0.35188 0.0113905
thorax 12.597 0.0287409 2.18061
lowerneck 1.24268 -2.31761 -4.03235
upperneck -11.2256 -2.1167 7.00549
head -3.78274 -0.943715 3.14779
rclavicle -1.68967e-015 1.15295e-014
rhumerus -35.4272 -18.5564 -79.9592
rradius 28.1401
rwrist 1.30049
rhand -8.14264 -54.2846
rfingers 7.12502
rthumb 17.7716 -83.4925
lclavicle -1.68967e-015 1.15295e-014
lhumerus -29.2894 2.94748 83.7716
lradius 23.0985
lwrist -3.45303
lhand -19.8918 -12.8826
lfingers 7.12502
lthumb 6.44428 16.9994
rfemur -25.78 6.57479 18.2977
rtibia 8.10714
rfoot -19.6524 -9.03559
rtoes -32.9389
lfemur -25.0128 -8.27161 -17.6439
ltibia 6.86398
lfoot -8.46966 4.68494
ltoes -36.8001
51
root 8.73899 16.3248 30.3788 -151.349 0.959556 -179.818
lowerback -29.6494 -2.01537 -4.10828
upperback -2.67926 -0.336043 -0.0171685
thorax 12.6572 0.0330889 2.17357
lowerneck 1.22049 -2.33456 -3.96409
upperneck -11.2923 -2.12306 7.01648
head -3.80181 -0.946485 3.14017
rclavicle -3.23025e-015 3.18055e-015
rhumerus -35.3732 -18.8132 -79.9141
rradius 28.0693
rwrist 1.57975
rhand -8.15982 -54.2155
rfingers 7.12502
rthumb 17.7551 -83.4249
lclavicle -3.23025e-015 3.18055e-015
lhumerus -29.2347 2.76761 83.8034
lradius 23.0967
lwrist -3.25495
lhand -20.0618 -12.9968
lfingers 7.12502
lthumb 6.28015 16.8901
rfemur -25.7951 6.59198 18.2726
rtibia 8.11851
rfoot -19.636 -9.12244
rtoes -33.0069
lfemur -25.0376 -8.23934 -17.6804
ltibia 6.83334
lfoot -8.45058 4.59532
ltoes -37.6247
52
root 8.73956 16.3236 30.3766 -151.338 0.956248 -179.851
lowerback -29.6479 -2.02339 -4.15799
upperback -2.67532 -0.329305 -0.0240682
thorax 12.6606 0.0336005 2.19564
lowerneck 1.15467 -2.34131 -3.91781
upperneck -11.3271 -2.11986 7.01155
head -3.80171 -0.942714 3.12883
rclavicle 3.47873e-016 6.36111e-015
rhumerus -35.3716 -19.0335 -79.8382
rradius 28.0269
rwrist 1.82185
rhand -8.17792 -54.1539
rfingers 7.12502
rthumb 17.7376 -83.3649
lclavicle 3.47873e-016 6.36111e-015
lhumerus -29.202 2.7553 83.8128
lradius 23.0427
lwrist -3.2236
lhand -20.4565 -13.0668
lfingers 7.12502
lthumb 5.89907 16.8311
rfemur -25.7836 6.70962 18.2257
rtibia 8.11684
rfoot -19.6231 -9.32894
rtoes -33.3135
lfemur -25.0358 -8.15047 -17.7441
ltibia 6.81831
lfoot -8.40127 4.47527
ltoes -38.5639
53
root 8.74056 16.3242 30.3733 -151.399 0.910224 -179.86
lowerback -29.5745 -2.06058 -4.17635
upperback -2.65789 -0.387302 0.00974838
thorax 12.6519 0.00238125 2.21991
lowerneck 1.0995 -2.30436 -3.97453
upperneck -11.3132 -2.07139 7.0081
head -3.78901 -0.914974 3.13513
rclavicle -2.83268e-015 6.36111e-015
rhumerus -35.3472 -18.9976 -79.8307
rradius 28.0614
rwrist 1.91061
rhand -8.20282 -54.0983
rfingers 7.12502
rthumb 17.7137 -83.3115
lclavicle -2.83268e-015 6.36111e-015
lhumerus -29.1676 2.92124 83.8009
lradius 22.9833
lwrist -3.33769
lhand -19.9849 -13.2387
lfingers 7.12502
lthumb 6.35437 16.646
rfemur -25.6453 6.8261 18.1856
rtibia 7.98531
rfoot -19.6074 -9.37883
rtoes -32.7482
lfemur -24.9697 -8.14782 -17.7493
ltibia 6.83952
lfoot -8.3773 4.42556
ltoes -38.146
54
root 8.73958 16.3263 30.3688 -151.432 0.898319 -179.95
lowerback -29.5736 -2.11373 -4.24332
upperback -2.62398 -0.44085 0.017508
thorax 12.6937 -0.029321 2.24401
lowerneck 1.03284 -2.26652 -4.01345
upperneck -11.3203 -2.01819 6.99466
head -3.78194 -0.884176 3.13474
rclavicle -2.23633e-015 -9.14409e-015
rhumerus -35.2556 -18.7323 -79.9436
rradius 28.127
rwrist 1.80223
rhand -8.24022 -54.1391
rfingers 7.12502
rthumb 17.6777 -83.3555
lclavicle -2.23633e-015 -9.14409e-015
lhumerus -29.1063 3.09613 83.7815
lradius 22.9243
lwrist -3.42638
lhand -19.9037 -13.2003
lfingers 7.12502
lthumb 6.4328 16.682
rfemur -25.5389 6.74123 18.0787
rtibia 7.86407
rfoot -19.6274 -9.23946
rtoes -32.062
lfemur -24.9307 -8.29872 -17.8328
ltibia 6.85161
lfoot -8.38101 4.56209
ltoes -37.956
55
root 8.7386 16.3269 30.3653 -151.38 0.90117 -179.977
lowerback -29.6655 -2.12877 -4.249
upperback -2.61657 -0.450153 0.0181932
thorax 12.7436 -0.033427 2.24407
lowerneck 1.0484 -2.27911 -4.00894
upperneck -11.4206 -2.01893 7.02679
head -3.82031 -0.882891 3.14827
rclavicle 4.91992e-015 7.55382e-015
rhumerus -35.1618 -18.5937 -80.0282
rradius 28.1029
rwrist 1.63967
rhand -8.26834 -54.1386
rfingers 7.12502
rthumb 17.6506 -83.3574
lclavicle 4.91992e-015 7.55382e-015
lhumerus -29.0598 3.22692 83.7525
lradius 22.8377
lwrist -3.582
lhand -19.9425 -13.29
lfingers 7.12502
lthumb 6.39533 16.5935
rfemur -25.5972 6.67285 18.0491
rtibia 7.91248
rfoot -19.7295 -9.12778
rtoes -31.4735
lfemur -24.9761 -8.40873 -17.831
ltibia 6.85159
lfoot -8.46049 4.69073
ltoes -38.2198
56
root 8.73924 16.3256 30.3634 -151.338 0.886723 -179.914
lowerback -29.7354 -2.11918 -4.18129
upperback -2.62028 -0.454746 0.0314727
thorax 12.7705 -0.0312901 2.21982
lowerneck 1.15069 -2.30866 -4.00793
upperneck -11.4949 -2.04626 7.11219
head -3.86463 -0.900271 3.18356
rclavicle -1.93815e-015 -1.55052e-014
rhumerus -35.1334 -18.5747 -80.0385
rradius 28.0901
rwrist 1.52926
rhand -8.28626 -54.0932
rfingers 7.12502
rthumb 17.6334 -83.3136
lclavicle -1.93815e-015 -1.55052e-014
lhumerus -29.066 3.19035 83.7604
lradius 22.8253
lwrist -3.61421
lhand -20.2293 -13.1453
lfingers 7.12502
lthumb 6.1184 16.7464
rfemur -25.6487 6.85988 18.0769
rtibia 7.94306
rfoot -19.7447 -9.25511
rtoes -31.0926
lfemur -25.0123 -8.49353 -17.6979
ltibia 6.8438
lfoot -8.5448 4.74015
ltoes -37.7105
57
root 8.74033 16.3258 30.3635 -151.345 0.865653 -179.894
lowerback -29.7278 -2.13456 -4.17668
upperback -2.60535 -0.481503 0.0433747
thorax 12.786 -0.0454318 2.21982
lowerneck 1.21355 -2.32347 -3.99859
upperneck -11.5379 -2.0569 7.17507
head -3.89137 -0.908663 3.2071
rclavicle 2.68359e-015 1.19271e-014
rhumerus -35.1251 -18.5037 -80.0641
rradius 28.1571
rwrist 1.50948
rhand -8.30302 -54.0709
rfingers 7.12502
rthumb 17.6173 -83.2928
lclavicle 2.68359e-015 1.19271e-014
lhumerus -29.0167 3.18469 83.7542
lradius 22.7884
lwrist -3.64054
lhand -20.4019 -12.9077
lfingers 7.12502
lthumb 5.95179 16.9887
rfemur -25.6131 6.88024 18.1337
rtibia 7.90045
rfoot -19.6139 -9.42757
rtoes -31.9601
lfemur -24.9962 -8.44842 -17.6678
ltibia 6.80865
lfoot -8.529 4.64454
ltoes -36.9309
58
root 8.74016 16.3253 30.3586 -151.446 0.848325 -179.87
lowerback -29.7061 -2.13462 -4.15679
upperback -2.54517 -0.503174 0.0565713
thorax 12.8461 -0.0622982 2.21442
lowerneck 1.24715 -2.32249 -3.99145
upperneck -11.9367 -1.99946 7.42954
head -3.61736 -0.914941 2.97515
rclavicle -7.8023e-015 1.74931e-014
rhumerus -35.0154 -18.5022 -80.1024
rradius 28.1148
rwrist 1.54614
rhand -8.30773 -54.0107
rfingers 7.12502
rthumb 17.6127 -83.233
lclavicle -7.8023e-015 1.74931e-014
lhumerus -28.9378 3.28701 83.7007
lradius 22.6481
lwrist -3.72774
lhand -20.3336 -13.2683
lfingers 7.12502
lthumb 6.01776 16.6262
rfemur -25.4596 6.64949 18.2585
rtibia 7.87594
rfoot -19.5164 -9.33418
rtoes -32.8758
lfemur -24.8066 -8.34561 -17.6908
ltibia 6.67883
lfoot -8.38306 4.58821
ltoes -37.6501
59
root 8.74146 16.3259 30.3576 -151.498 0.720908 -179.883
lowerback -29.6508 -2.19188 -4.17555
upperback -2.52907 -0.584378 0.09162
thorax 12.8457 -0.103317 2.23144
lowerneck 1.25202 -2.2788 -4.01819
upperneck -11.9386 -1.9444 7.41008
head -3.62195 -0.886226 2.97209
rclavicle -2.48481e-015 -1.51076e-014
rhumerus -34.9184 -18.4169 -80.1691
rradius 28.1104
rwrist 1.4464
rhand -8.31938 -53.9876
rfingers 7.12502
rthumb 17.6015 -83.2109
lclavicle -2.48481e-015 -1.51076e-014
lhumerus -28.9245 3.32056 83.714
lradius 22.5924
lwrist -3.75578
lhand -20.3657 -13.3267
lfingers 7.12502
lthumb 5.98676 16.5687
rfemur -25.3555 6.66031 18.2627
rtibia 7.84438
rfoot -19.5196 -9.35292
rtoes -32.3926
lfemur -24.7725 -8.29261 -17.7206
ltibia 6.73973
lfoot -8.33047 4.48779
ltoes -38.7294
60
root 8.73943 16.3274 30.3503 -151.612 0.742031 -179.849
lowerback -29.6072 -2.17034 -4.1274
upperback -2.49994 -0.583423 0.0970774
thorax 12.859 -0.105004 2.21134
lowerneck 1.24757 -2.24591 -4.01366
upperneck -11.908 -1.90259 7.41118
head -3.61457 -0.866318 2.97
rclavicle -5.1684e-015 1.66979e-014
rhumerus -34.9236 -18.229 -80.2525
rradius 28.1942
rwrist 1.33976
rhand -8.34688 -53.9654
rfingers 7.12502
rthumb 17.575 -83.1911
lclavicle -5.1684e-015 1.66979e-014
lhumerus -28.9054 3.4439 83.6617
lradius 22.4796
lwrist -4.03339
lhand -20.2313 -13.1931
lfingers 7.12502
lthumb 6.11648 16.6986
rfemur -25.1722 6.74141 18.269
rtibia 7.80549
rfoot -19.6698 -9.22155
rtoes -31.2498
lfemur -24.5923 -8.45297 -17.6937
ltibia 6.74903
lfoot -8.48322 4.70063
ltoes -38.2092
61
root 8.74033 16.3279 30.346 -151.655 0.737171 -179.77
lowerback -29.5384 -2.14712 -4.06874
upperback -2.5351 -0.576682 0.113329
thorax 12.7879 -0.0964829 2.20011
lowerneck 1.33226 -2.25689 -3.98804
upperneck -11.974 -1.90724 7.45746
head -3.64785 -0.872704 2.98195
rclavicle -1.39149e-015 -2.0276e-014
rhumerus -35.0057 -18.1759 -80.2484
rradius 28.2144
rwrist 1.30527
rhand -8.36975 -53.8492
rfingers 7.12502
rthumb 17.553 -83.0768
lclavicle -1.39149e-015 -2.0276e-014
lhumerus -28.914 3.53482 83.5835
lradius 22.3271
lwrist -4.25763
lhand -20.0356 -13.2483
lfingers 7.12502
lthumb 6.30547 16.6379
rfemur -25.1385 6.73105 18.3753
rtibia 7.87264
rfoot -19.7847 -9.15116
rtoes -30.8778
lfemur -24.52 -8.5764 -17.5535
ltibia 6.72898
lfoot -8.5488 4.8225
ltoes -37.4102
62
root 8.74151 16.327 30.3435 -151.675 0.702071 -179.697
lowerback -29.4805 -2.14159 -4.02353
upperback -2.57143 -0.590604 0.153746
thorax 12.7222 -0.0983472 2.21429
lowerneck 1.3641 -2.23904 -4.0147
upperneck -11.9948 -1.88356 7.46313
head -3.66038 -0.860915 2.98807
rclavicle 5.91384e-015 6.36111e-015
rhumerus -35.0635 -18.2093 -80.1758
rradius 28.2063
rwrist 1.28747
rhand -8.37857 -53.7345
rfingers 7.12502
rthumb 17.5445 -82.9628
lclavicle 5.91384e-015 6.36111e-015
lhumerus -28.9393 3.66223 83.5431
lradius 22.1754
lwrist -4.36103
lhand -20.3198 -13.9115
lfingers 7.12502
lthumb 6.03112 15.9827
rfemur -25.1351 6.75894 18.4712
rtibia 7.92578
rfoot -19.8069 -9.20427
rtoes -30.9834
lfemur -24.4874 -8.63514 -17.4183
ltibia 6.66638
lfoot -8.4753 4.83452
ltoes -37.326
63
root 8.74143 16.3262 30.3411 -151.672 0.704369 -179.71
lowerback -29.493 -2.15329 -4.03564
upperback -2.56922 -0.601461 0.157368
thorax 12.7311 -0.104047 2.22059
lowerneck 1.25416 -2.19884 -4.02384
upperneck -11.8927 -1.83673 7.44204
head -3.61436 -0.834802 2.97906
rclavicle 2.98177e-016 -6.36111e-015
rhumerus -35.0234 -18.2613 -80.1704
rradius 28.1948
rwrist 1.3466
rhand -8.3934 -53.6622
rfingers 7.12502
rthumb 17.5303 -82.8918
lclavicle 2.98177e-016 -6.36111e-015
lhumerus -28.9107 3.76615 83.4959
lradius 22.0316
lwrist -4.4937
lhand -20.6481 -14.4764
lfingers 7.12502
lthumb 5.71408 15.4265
rfemur -25.102 6.78722 18.45
rtibia 7.87719
rfoot -19.7216 -9.26007
rtoes -31.2822
lfemur -24.4767 -8.56065 -17.4624
ltibia 6.65563
lfoot -8.44085 4.76528
ltoes -37.7136
64
root 8.74201 16.3256 30.3399 -151.603 0.706185 -179.745
lowerback -29.5615 -2.16677 -4.05782
upperback -2.56922 -0.600644 0.133683
thorax 12.7613 -0.102947 2.20729
lowerneck 1.18318 -2.19114 -4.02067
upperneck -11.5278 -1.86941 7.22257
head -3.89446 -0.814929 3.22154
rclavicle 4.57205e-015 -7.95139e-015
rhumerus -34.9416 -18.3583 -80.2207
rradius 28.1632
rwrist 1.4668
rhand -8.4154 -53.5752
rfingers 7.12502
rthumb 17.5091 -82.8067
lclavicle 4.57205e-015 -7.95139e-015
lhumerus -28.8652 3.66171 83.4953
lradius 21.9599
lwrist -4.48291
lhand -20.5933 -14.3919
lfingers 7.12502
lthumb 5.76706 15.5096
rfemur -25.156 6.96993 18.354
rtibia 7.85302
rfoot -19.5621 -9.47649
rtoes -31.504
lfemur -24.5554 -8.49944 -17.5144
ltibia 6.69465
lfoot -8.40797 4.70089
ltoes -37.8767
